# xmcd CD database file
#
# Track frame offsets:
#	150
#	11643
#	17378
#	29961
#	40191
#	48911
#	61019
#	72903
#	79806
#	86696
#	93455
#	113410
#	124215
#	142460
#	155004
#	165543
#	176605
#	189942
#	204473
#	221909
#
# Disc length: 3138 seconds
#
# Revision: 0
# Processed by: cddbd v1.5.2PL0 Copyright (c) Steve Scherf et al.
# Submitted via: CDex 1.51
#
DISCID=170c4014
DTITLE=Various Artist - 20 Exitos Bailables Enganchados
DYEAR=1900
DGENRE=Salsa
TTITLE0=Salome
TTITLE1=Por Arriba, Por Abajo
TTITLE2=Cambio Dolor
TTITLE3=Mueve Tu Cucu
TTITLE4=Atrevete A Mirarme De Frente
TTITLE5=La Fuerza Del Engano
TTITLE6=Por Amor
TTITLE7=Tequila Boom Boom
TTITLE8=Ruleta Rusa
TTITLE9=Cuba Libre
TTITLE10=Levantando Las Manos
TTITLE11=Muevelo
TTITLE12=La Bomba
TTITLE13=Mujer Latina
TTITLE14=Boogaloo
TTITLE15=Amor Sincero (Endulzame Que Soy Cafe)
TTITLE16=Que Si, Que Si
TTITLE17=1,2,3
TTITLE18=Oye
TTITLE19=Los Piratas
EXTD=
EXTT0=
EXTT1=
EXTT2=
EXTT3=
EXTT4=
EXTT5=
EXTT6=
EXTT7=
EXTT8=
EXTT9=
EXTT10=
EXTT11=
EXTT12=
EXTT13=
EXTT14=
EXTT15=
EXTT16=
EXTT17=
EXTT18=
EXTT19=
PLAYORDER=
